<svg width="20" height="20" viewBox="0 0 20 20" fill="none" xmlns="http://www.w3.org/2000/svg">
<path d="M8.85599 11.1441C7.68599 9.97412 6.80399 8.66412 6.21799 7.33512C6.09399 7.05412 6.16699 6.72512 6.38399 6.50812L7.20299 5.69012C7.87399 5.01912 7.87399 4.07012 7.28799 3.48412L6.11399 2.31012C5.33299 1.52912 4.06699 1.52912 3.28599 2.31012L2.63399 2.96212C1.89299 3.70312 1.58399 4.77212 1.78399 5.83212C2.27799 8.44512 3.79599 11.3061 6.24499 13.7551C8.69399 16.2041 11.555 17.7221 14.168 18.2161C15.228 18.4161 16.297 18.1071 17.038 17.3661L17.689 16.7151C18.47 15.9341 18.47 14.6681 17.689 13.8871L16.516 12.7141C15.93 12.1281 14.98 12.1281 14.395 12.7141L13.492 13.6181C13.275 13.8351 12.946 13.9081 12.665 13.7841C11.336 13.1971 10.026 12.3141 8.85599 11.1441V11.1441Z" stroke="white" stroke-width="1.5" stroke-linecap="round" stroke-linejoin="round"/>
</svg>
